<svg xmlns="http://www.w3.org/2000/svg" viewBox="0 0 210 297" width="100%" height="100%">
  <path fill="#3450fa" transform="scale(0.26458333)" d="m 374.71406,612.93783 v -69.2494 l -2.80001,-4.4e-4 c -2.64452,-4.1e-4 -29.93884,-0.49575 -120.8482,-2.19312 -21.53857,-0.40215 -39.26308,-0.83324 -39.38781,-0.95797 -0.96157,-0.96157 10.02595,-12.20268 105.38269,-107.81491 48.18068,-48.30978 87.66595,-88.00229 87.74505,-88.2056 0.0791,-0.2033 -17.61965,-18.74685 -39.33055,-41.20788 l -39.47436,-40.83823 22.28702,-0.32737 c 26.56979,-0.39027 218.0674,-1.38572 265.58844,-1.38059 l 33.42258,0.004 0.29881,14.24352 c 0.37574,17.91056 1.41414,276.21227 1.19344,296.86428 l -0.16331,15.2809 -44.16274,-43.91059 -44.16274,-43.91059 -11.10698,10.84483 c -38.35533,37.45005 -120.20351,118.0258 -150.74214,148.39864 l -23.73919,23.61033 z" />
  <path fill="#2a2a2a" transform="scale(0.26458333)" d="m 373.4131,630.26226 c -0.45829,-27.43544 -0.0658,-58.15703 -0.64687,-68.2296 l -0.97392,-16.88336 -37.49576,-0.8706 c -21.55437,-0.50046 -58.1555,-0.67842 -81.32815,-0.73044 l -46.02371,-0.10331 43.58893,-44.04185 42.615,-42.58098 63.30452,-1.46164 c 32.67056,-0.75433 72.37491,-1.25634 88.2223,-1.60059 l 28.81343,-0.6259 0.64643,47.59027 c 0.35552,26.17465 0.6469,55.14007 0.6475,64.36761 l 0.24448,18.23823 -28.00008,27.50882 c -15.40005,15.12985 -37.43386,37.3319 -49.50979,48.77399 l -23.21407,23.94343 z" />
  <path fill="#344ffe" transform="scale(0.26458333)" d="m 289.64742,823.4714 -23.95344,-0.51265 104.30148,-105.66985 104.30148,-105.66985 0.72359,37.00879 c 0.39798,20.35484 0.61711,44.46433 0.48696,53.57664 l -0.23664,16.56785 -53.56536,52.77999 -53.56536,52.77998 -27.26964,-0.17412 c -14.9983,-0.0958 -38.04868,-0.40483 -51.22307,-0.68678 z" />
  <path fill="#2a2a2a" transform="scale(0.26458333)" d="m 81.803941,596.01753 c -0.395922,-27.45112 -0.556769,-50.34317 -0.35744,-50.87124 0.199329,-0.52805 23.152039,-24.35477 51.006029,-52.94825 l 50.64362,-51.98815 33.60009,-0.72453 c 18.48005,-0.39849 40.87201,-0.61762 49.7599,-0.48696 l 16.15981,0.23757 -88.71653,91.69153 C 145.10533,581.35784 100.0846,627.86369 93.853345,634.27384 l -11.329548,11.65481 z" />
  <path fill="#ffd4bd" transform="scale(0.26458333)" d="m 224.97452,824.36579 c -11.78438,-0.3703 -23.94615,-0.7288 -27.02616,-0.79668 l -5.60001,-0.1234 v -47.72187 -47.72187 l -3.65219,-0.007 c -9.51119,-0.0171 -105.838789,-2.03176 -106.004664,-2.21707 -0.103957,-0.11614 -0.508544,-15.14915 -0.899083,-33.40671 l -0.71007,-33.19554 63.097997,-0.64802 c 34.7039,-0.35642 74.85879,-0.64803 89.23309,-0.64803 h 26.1351 l 0.0206,4.13915 c 0.0113,2.27652 0.65874,37.88532 1.43865,79.13064 0.7799,41.24533 1.428,77.07326 1.44022,79.61761 l 0.0222,4.6261 -8.03481,-0.17725 c -4.41914,-0.0975 -17.67657,-0.48021 -29.46095,-0.8505 z" />
  <path fill="#ffd4bd" transform="scale(0.26458333)" d="m 283.88468,770.68169 c -0.30824,-8.25195 -3.86415,-129.05198 -3.87218,-131.5438 l -0.0117,-3.64645 -78.82143,-0.24921 -78.82143,-0.2492 34.75175,-35.44307 34.75174,-35.44306 79.86109,1.19858 c 43.92359,0.65923 79.92627,1.26943 80.00594,1.35602 0.0797,0.0866 0.62263,20.09835 1.20657,44.47059 0.58394,24.37224 1.32053,55.05058 1.63686,68.1741 l 0.57514,23.86093 -32.35506,31.1653 c -29.76024,28.6659 -38.87613,37.18246 -38.90725,36.34927 z" />
</svg>
